# xmcd
#
# Track frame offsets: 
#        150
#        18522
#        33723
#        48896
#        63147
#        78338
#        89787
#        101663
#        116522
#        132199
#        148693
#        170801
#        185525
#
# Disc length: 2704 seconds
#
# Revision: 0
# Processed by: cddbd v1.5.2PL0 Copyright (c) Steve Scherf et al.
# Submitted via: ExactAudioCopyFreeDBPlugin 1.0
#
DISCID=b50a8e0d
DTITLE=Murs - Captain California
DYEAR=2017
DGENRE=Hip-Hop
TTITLE0=Lemon Juice (feat. Curtiss King)
TTITLE1=Shakespeare on the Low (feat. Rexx Life Raj)
TTITLE2=GBKW (God Bless Kanye West)
TTITLE3=Colossus
TTITLE4=Another Round (feat. Krizz Kaliko)
TTITLE5=Xmas and Thanksgiving
TTITLE6=Summer
TTITLE7=1000 Suns
TTITLE8=One Uh Those Days (feat. Reverie)
TTITLE9=G is for Gentrify
TTITLE10=Animals Damnit (feat. Beleaf)
TTITLE11=Ay Caramba
TTITLE12=Wanna Be High (feat. Big Too Big and Kelton Blackshear)
EXTD=
EXTT0=
EXTT1=
EXTT2=
EXTT3=
EXTT4=
EXTT5=
EXTT6=
EXTT7=
EXTT8=
EXTT9=
EXTT10=
EXTT11=
EXTT12=
PLAYORDER=
